<?xml version="1.0" encoding="UTF-8"?>
<svg xmlns="http://www.w3.org/2000/svg" version="1.1" viewBox="0 0 700 700">
  <defs>
    <style>
      .cls-1 {
        fill: #5698d2;
      }

      .cls-1, .cls-2, .cls-3 {
        stroke-width: 0px;
      }

      .cls-2 {
        fill: #205378;
      }

      .cls-3 {
        fill: #2163af;
      }
    </style>
  </defs>
  <g id="wing">
    <path class="cls-2" d="M464.17,327.1c19.52-13.21,40.08-26.35,56.6-36.4,16.52-10.05,29.29-17.24,39.26-22.46,7.42-3.89,13.49-6.8,15.14-6.72,1.48.07-.64,2.53-2.96,5.11-.3.33-.65.71-1.82,1.58-1.56,1.17-4.09,2.86-6.38,4.38-38.94,25.95-79.12,52.58-115.59,75.61-9.99,6.31-19.74,12.37-27.45,16.88-18.87,11.04-21.93,10.78-23.85,9.97-.01,1.91-.55,4.31-14.43,15.04-17.01,13.15-48.86,34.81-77.98,54.26-23.91,15.97-49.28,32.71-69.97,45.43-1.57.97-3.17,1.94-4.03,2.38-.99.51-.83.22-.64-.07,1.88-2.92,3.78-5.86,9.1-11s14.29-12.66,28.71-23.43c5.35-4,11.54-8.5,18.83-13.55,11.86-8.22,25.11-16.84,37.72-25.05,47.17-30.71,94.81-62.02,142.4-93.57l-2.66,1.59Z"/>
    <path class="cls-2" d="M351.21,234.18c19.88-12.67,39.64-27.02,54.72-39.23s25.84-22.43,33.64-30.91c5.81-6.31,10.15-11.84,9.98-14.49-.15-2.38-3.9-2.36-7.81-2.19-.51.02-1.08.07-2.39.72-1.76.87-4.31,2.53-6.6,4.05-39.04,25.8-79.09,52.61-113.7,78.45-9.48,7.08-18.58,14.12-25.34,20.05-16.55,14.53-16.07,19.59-14.77,23.63-2.95-2.51-6.64-4.84-22.84,2.39-19.86,8.87-52.46,29.39-81.73,48.62-24.03,15.79-49.21,32.82-68.31,47.93-1.45,1.15-2.92,2.33-3.58,3.08-.75.85-.32.98.12,1.07,4.45.96,8.94,1.92,16.75.51s19.18-5.31,35.42-13.33c6.03-2.98,12.82-6.58,20.43-11.15,12.37-7.44,25.34-16.5,37.68-25.11,46.18-32.21,93.25-64.36,140.72-96.1l-2.39,2Z"/>
  </g>
  <g id="bot">
    <g>
      <path class="cls-1" d="M350.15,520.43c-16.21,6.9-32.89,11.31-50.73,9.73,2.03-4.45,5.85-5.82,10.36-6.42,4.81-.64,9.68-1.45,12.98-5.34-.91-3.94-1.76-7.4-2.52-10.89-2.55-11.8-10.41-19.48-20.04-25.74-13.75-8.94-28.04-17.14-41.18-26.9-13.88-10.31-24.43-23.77-29-40.9-2.77-10.4-4.97-20.97-6.92-31.56-1.8-9.74-2.26-19.78-4.6-29.37-1.56-6.39-5.36-12.23-8.96-20.05-3.42-1.67-8.06-5.6-12.86-5.81-4.68-.2-9.52,3.4-15.02,5.62-.93-.36-2.81-1.08-4.68-1.81,4.67-12.2,13.06-21.85,21.64-31.33,13.55-14.97,29.29-27.31,46.33-38.05-.14,1.19-.27,2.38-.54,4.77,22.26-16.43,43.56-32.15,64.86-47.86,6.32-4.13,12.66-8.23,18.95-12.41,3.09-2.05,5.75-2.22,7.86,1.3,1.24,3.34,2,6.97,3.79,9.97,12.16,20.32,23.95,40.91,36.98,60.67,23.51,35.65,47.72,70.84,71.83,106.09,8.79,12.86,17.95,25.47,27.29,37.93,2.23,2.98,5.86,4.92,8.85,7.34.57,2.08,1.14,4.17,1.92,7.03-7.74,5.68-15.28,11.22-22.82,16.76-8.83,4.28-17.95,8.07-26.43,12.96-13.26,7.65-26.13,15.96-39.07,24.14-11.85,7.49-24.41,13.26-37.99,16.79-4.36,1.13-8.81,2.02-13.01,3.61-3.35,1.27-6.37,3.41-9.53,5.17.13.81.26,1.62.39,2.43,3.95.71,7.91,1.41,11.86,2.12Z"/>
      <path class="cls-1" d="M349.02,221.72c-1.32-3.01-2.68-6-3.94-9.03-1.68-4.07-3.27-8.18-5.23-13.08,40.23-20.84,79.98-20.27,120.95-3.72,2.42-4.69,4.71-9,6.88-13.38,4.21-8.5,8.15-17.13,12.57-25.52,4.67-8.86,13.77-10.41,20.72-3.87,3.97,3.73,4.65,9.09,1.57,15.58-5.42,11.42-11.04,22.75-16.56,34.13-.87,1.8-1.64,3.64-2.59,5.76,29.28,21.69,48.27,50.08,56.83,86.08,13.02-.7,25.81-1.41,38.61-2.07,3.15-.16,6.34-.46,9.46-.19,6.25.56,10.43,4.75,11.24,10.77.8,5.97-2.1,11.46-8.27,13-5.83,1.46-12.01,1.62-18.06,2.08-9.87.74-19.75,1.26-30.27,1.92.09,29.12-6.88,55.83-22.91,79.73-7.27,10.84-15.67,20.78-27.22,29.44-2.92-2.78-5.6-5.29-8.24-7.84-2.68-2.59-5.32-5.23-7.97-7.84l-4.45-6.7c.17-.14.33-.29.5-.43,1.16.9,2.32,1.79,3.12,2.41-41.14-61.89-82.42-123.99-123.7-186.09-.08.02-.17.05-.25.07.82,1.68,1.65,3.36,2.47,5.04-.27.15-.53.31-.8.46l-4.45-6.7ZM498.15,356.94c9.2-6.62,8.81-14.71,4.28-23.88-2.9-5.87-9.71-6.89-15.07-3.23-7.28,4.96-10.47,18.73-5.91,25.49,3.67,5.45,9.95,6.05,16.7,1.61ZM421.07,220.42c-.38-.52-.77-1.04-1.15-1.56-4.45,2.35-9.21,4.26-13.25,7.17-4.43,3.19-5.34,9.47-2.18,13.24,4.31,5.15,10.23,7.37,16.88,6.52,6.44-.83,12.33-2.91,14.21-10.4-1.06-2.72-2.1-5.41-3.18-8.18-3.81-2.28-7.57-4.53-11.32-6.78Z"/>
      <path class="cls-3" d="M176.99,331.01c1.88.72,3.75,1.45,4.68,1.81,5.5-2.22,10.34-5.82,15.02-5.62,4.8.21,9.43,4.14,12.86,5.81,3.59,7.82,7.4,13.66,8.96,20.05,2.33,9.59,2.8,19.62,4.6,29.37,1.96,10.59,4.15,21.16,6.92,31.56,4.57,17.13,15.12,30.59,29,40.9,13.14,9.76,27.43,17.96,41.18,26.9,9.63,6.26,17.49,13.93,20.04,25.74.75,3.49,1.6,6.95,2.52,10.89-3.31,3.9-8.17,4.71-12.98,5.34-4.51.6-8.33,1.97-10.36,6.42-2.71-.07-5.42-.15-8.13-.22-.5-.05-1-.09-1.5-.14-5.68-.87-11.34-1.93-17.04-2.56-3.67-.4-7.41-.18-11.13-.23-1.39-.51-2.77-1.43-4.17-1.47-14.75-.38-28.76-2.05-37.38-16.54-2.86-4.81-7.58-7.21-13.33-5.4-9.83,3.09-19.68,6.18-29.32,9.82-6.63,2.5-12.9,5.93-18.43,8.52-1.14,3.94-1.89,6.53-2.77,9.58,8.04,10.92,15.98,21.53,23.69,32.31,2.3,3.22,3.93,6.92,5.87,10.4-5.39-4.96-11.43-9.39-16.03-15-9.56-11.68-18.24-24.09-23.3-38.52-3.49-9.95-1.77-13.23,7.34-18.79,13.67-8.34,27.16-16.98,40.69-25.55,1.5-.95,2.76-2.27,4.86-4.03-3.9-5.87-7.73-11.63-11.48-17.27-15.92,10.58-31.27,20.79-46.62,30.99-2.99,1.23-5.98,2.46-8.97,3.69-3.83-2.14-8.42-3.55-11.35-6.56-13.66-14.04-23.92-30.45-31.43-48.53-.75-1.8-.64-3.95-.93-5.93,1.84,1.92,4.07,3.6,5.46,5.8,6.5,10.26,12.63,20.76,19.19,30.98,2.12,3.31,5.13,6.04,8.17,9.52,3.41-1.49,6.86-2.05,8.87-4.05,10.48-10.44,20.8-21.05,30.74-32,5.6-6.17,5.48-10.61.87-17.71-7.53-11.6-8-23.44-1.71-35.71.71-1.39.59-3.21.86-4.85-2.42.13-4.08.21-5.74.3,6.77-4.27,8.99-10.81,10.87-18.34,2.69-10.79,7.15-21.14,10.85-31.68Z"/>
      <path class="cls-1" d="M468.68,453.63c10.09.28,14.27,7.94,17.95,15.33,3.26,6.54.8,12.87-4.01,18.02-15.67,16.77-31.3,33.59-47.25,50.1-10.92,11.3-22.18,22.3-33.65,33.05-4.57,4.29-9.9,7.92-15.33,11.07-2.64,1.54-6.32,1.29-9.53,1.85-.77-5.42-1.65-10.82-2.27-16.25-1.08-9.34-1.4-18.75,6.48-25.64,9.95-8.69,20.25-16.98,30.49-25.34,5.39-4.4,11.2-8.3,16.41-12.89,14.27-12.58,28.32-25.4,42.87-38.51.47-1.76,1.03-3.91,1.43-5.4l-3.59-5.41Z"/>
      <path class="cls-3" d="M468.68,453.63c.99,1.5,1.99,2.99,3.59,5.41-.39,1.48-.96,3.63-1.43,5.4-14.56,13.11-28.61,25.93-42.87,38.51-5.21,4.59-11.02,8.49-16.41,12.89-10.24,8.36-20.54,16.64-30.49,25.34-7.88,6.89-7.56,16.3-6.48,25.64.63,5.43,1.51,10.83,2.27,16.25-11.25-.17-19.31-5.87-24.34-15.4-4.92-9.32-4.85-19.22,2.57-27.16,8.91-9.53,18.5-18.5,28.4-27,15.56-13.36,31.63-26.12,47.11-39.69-11.79,7.83-23.21,16.31-35.45,23.34-14.63,8.4-29.97,15.58-45,23.28-3.95-.71-7.91-1.41-11.86-2.12-.13-.81-.26-1.62-.39-2.43,3.16-1.76,6.18-3.9,9.53-5.17,4.19-1.58,8.65-2.47,13.01-3.61,13.58-3.53,26.15-9.31,37.99-16.79,12.94-8.18,25.82-16.49,39.07-24.14,8.48-4.89,17.6-8.68,26.43-12.96,1.58.14,3.17.28,4.76.42Z"/>
      <path class="cls-1" d="M155.27,381.03c1.66-.09,3.32-.17,5.74-.3-.27,1.65-.14,3.47-.86,4.85-6.29,12.27-5.82,24.11,1.71,35.71,4.61,7.1,4.73,11.53-.87,17.71-9.94,10.95-20.26,21.56-30.74,32-2.01,2-5.46,2.56-8.87,4.05-3.03-3.49-6.05-6.22-8.17-9.52-6.56-10.22-12.69-20.72-19.19-30.98-1.39-2.2-3.62-3.88-5.46-5.8-1.48-4.86,2.3-7.32,5.21-9.21,14.55-9.47,29.38-18.51,44.11-27.7l5.07-3.3c4.11-2.5,8.21-5,12.32-7.5Z"/>
      <path class="cls-1" d="M185.79,574.23c-1.94-3.48-3.56-7.18-5.87-10.4-7.7-10.78-15.65-21.39-23.69-32.31.88-3.05,1.63-5.63,2.77-9.58,5.53-2.59,11.81-6.01,18.43-8.52,9.64-3.64,19.48-6.73,29.32-9.82,5.75-1.81,10.46.59,13.33,5.4,8.62,14.49,22.63,16.16,37.38,16.54,1.4.04,2.78.96,4.17,1.47-21.76,15.03-43.44,30.19-65.4,44.94-2.75,1.85-6.93,1.57-10.45,2.28Z"/>
      <path class="cls-3" d="M349.02,221.72l4.45,6.7c.27-.15.53-.31.8-.46-.82-1.68-1.65-3.36-2.47-5.04.09-.02.17-.05.25-.07,41.28,62.1,82.56,124.2,123.7,186.09-.8-.62-1.96-1.51-3.12-2.41-.17.14-.33.29-.5.43l4.45,6.7c2.74,5.25,5.49,10.51,8.23,15.76-2.99-2.42-6.61-4.36-8.85-7.34-9.34-12.46-18.5-25.08-27.29-37.93-24.1-35.25-48.31-70.44-71.83-106.09-13.03-19.76-24.82-40.34-36.98-60.67-1.8-3-2.56-6.63-3.79-9.97,4.31,4.77,8.63,9.53,12.94,14.3Z"/>
      <path class="cls-1" d="M132.28,489.75l8.97-3.69-8.97,3.69Z"/>
      <path class="cls-3" d="M142.95,388.52c-1.69,1.1-3.38,2.2-5.07,3.3,1.69-1.1,3.38-2.2,5.07-3.3Z"/>
      <path class="cls-1" d="M289.8,529.8c.5.05,1,.09,1.5.14-.5-.05-1-.09-1.5-.14Z"/>
      <path class="cls-3" d="M498.15,356.94c-6.76,4.44-13.03,3.83-16.7-1.61-4.56-6.76-1.37-20.53,5.91-25.49,5.37-3.66,12.17-2.65,15.07,3.23,4.53,9.17,4.92,17.26-4.28,23.88Z"/>
      <path class="cls-3" d="M421.07,220.42c3.75,2.25,7.51,4.5,11.32,6.78,1.07,2.76,2.12,5.46,3.18,8.18-1.88,7.49-7.77,9.57-14.21,10.4-6.65.85-12.56-1.37-16.88-6.52-3.16-3.77-2.25-10.04,2.18-13.24,4.04-2.91,8.81-4.82,13.25-7.17.38.52.77,1.04,1.15,1.56Z"/>
    </g>
    <g id="left_arm" data-name="left arm">
      <path id="leftarm-2" class="cls-1" d="M385.12,179.57c2.4,8.35-.68,15.46-6.41,20.87-13.58,12.83-27.5,25.33-41.72,37.45-15.78,13.46-32.02,26.37-48.12,39.46-2.62,2.13-5.57,3.83-8.3,5.82-10.69,7.82-25.54,2.18-32.16-11.48,8.12.76,13.85-3.48,19.03-9.01,8.13-8.67,16.29-17.31,24.53-25.88,13.95-14.49,27.92-28.95,41.97-43.34,5.7-5.84,11.72-11.62,20.31-12.37,7.3-.64,14.7-.09,22.04-.3,2.95-.08,5.89-.8,8.83-1.22Z"/>
      <path class="cls-3" d="M267.43,262.68c8.13-8.67,16.29-17.31,24.53-25.88,13.95-14.49,27.92-28.95,41.97-43.34,5.7-5.84,11.72-11.62,20.31-12.37,7.3-.64,14.7-.09,22.04-.3,2.95-.08,5.89-.8,8.83-1.22-2.65-11.77-9.52-19.55-21.31-22.84-8.8-2.46-16.22.69-22.48,6.24-20.8,18.42-41.44,37.04-61.88,55.85-6.64,6.11-12.58,12.97-18.79,19.54-.19.27-.43.52-.71.75-.01.01-.02.02-.04.04,0,0,0,0,0,0-.19.15-.39.31-.62.44-2.24,1.25-3.51,3.38-4.88,5.46-3.24,6.59-6.48,13.16-9.71,19.73,1.24,2.31,2.49,4.62,3.73,6.93,8.12.76,13.85-3.48,19.03-9.01Z"/>
    </g>
  </g>
</svg>