<?xml version="1.0" encoding="UTF-8"?>
<svg xmlns="http://www.w3.org/2000/svg" version="1.1" viewBox="0 0 700 700">
  <defs>
    <style>
      .cls-1 {
        fill: #5698d2;
      }

      .cls-1, .cls-2, .cls-3 {
        stroke-width: 0px;
      }

      .cls-2 {
        fill: #205378;
      }

      .cls-3 {
        fill: #2163af;
      }
    </style>
  </defs>
  <g id="wing">
    <path class="cls-2" d="M444.12,244.42c-3.53-23.57,4.32-47.97,18.28-67.28,13.96-19.32,33.61-33.94,54.66-45.13,15.68-8.33,32.59-15,50.3-16.33,15.86-1.19,31.7,1.94,47.25,5.29,2.01.43,4.14.93,5.6,2.39,1.95,1.94,2.13,4.99,2.18,7.74.96,46.79-.22,94.99-18.4,138.12-4.98,11.81-11.33,23.29-20.54,32.2-22.56,21.83-57.02,24.23-88.39,25.39,28.58,1.07,59.23,2.85,81.85,20.35,27.73,21.45,35.05,59.95,36.48,94.98,1.18,28.76-.71,59.15-16.18,83.42-1.17,1.84-2.51,3.72-4.47,4.68-2.25,1.1-4.89.81-7.37.5-25.08-3.18-50.29-6.39-74.5-13.67-24.21-7.28-47.58-18.91-65.36-36.88-6.6-6.67-12.46-14.32-15.54-23.18-5.01-14.42-2.18-30.23.41-45.28,9.67-56.28,15.15-113.29,16.37-170.38l-2.62,3.09Z"/>
    <path class="cls-2" d="M245.69,244.56c3.53-23.57-4.32-47.97-18.28-67.28-13.96-19.32-33.61-33.94-54.66-45.13-15.68-8.33-32.59-15-50.3-16.33-15.86-1.19-31.7,1.94-47.25,5.29-2.01.43-4.14.93-5.6,2.39-1.95,1.94-2.13,4.99-2.18,7.74-.96,46.79.22,94.99,18.4,138.12,4.98,11.81,11.33,23.29,20.54,32.2,22.56,21.83,57.02,24.23,88.39,25.39-28.58,1.07-59.23,2.85-81.85,20.35-27.73,21.45-35.05,59.95-36.48,94.98-1.18,28.76.71,59.15,16.18,83.42,1.17,1.84,2.51,3.72,4.47,4.68,2.25,1.1,4.89.81,7.37.5,25.08-3.18,50.29-6.39,74.5-13.67,24.21-7.28,47.58-18.91,65.36-36.88,6.6-6.67,12.46-14.32,15.54-23.18,5.01-14.42,2.18-30.23-.41-45.28-9.67-56.28-15.15-113.29-16.37-170.38l2.62,3.09Z"/>
  </g>
  <g id="bot">
    <g>
      <path class="cls-1" d="M479.37,415.4c-3.23,17.32-8.79,33.65-19.98,47.63-2.58-4.15-1.61-8.09.39-12.18,2.13-4.36,4.15-8.86,2.74-13.77-3.78-1.42-7.14-2.63-10.46-3.93-11.24-4.41-21.98-2.11-32.53,2.44-15.06,6.5-29.8,13.86-45.2,19.4-16.27,5.86-33.32,7.19-50.11,1.51-10.19-3.45-20.21-7.47-30.11-11.7-9.11-3.9-17.72-9.06-27-12.43-6.18-2.24-13.15-2.31-21.65-3.64-3.29,1.92-9.12,3.61-11.95,7.49-2.76,3.78-2.44,9.81-3.63,15.62-.82.58-2.46,1.74-4.1,2.9-7.58-10.64-10.97-22.98-14.11-35.37-4.97-19.57-6.53-39.51-6.04-59.65.92.77,1.83,1.54,3.67,3.09-1.36-27.63-2.66-54.07-3.96-80.51.06-7.55.15-15.1.16-22.65,0-3.7,1.33-6.02,5.43-5.82,3.47.82,6.91,2.19,10.4,2.36,23.66,1.12,47.33,2.7,71,2.78,42.7.15,85.41-.53,128.12-1.09,15.57-.2,31.15-.85,46.7-1.73,3.72-.21,7.34-2.16,11.01-3.3,2.05.68,4.1,1.36,6.92,2.29.45,9.59.88,18.93,1.32,28.28-1.32,9.73-3.22,19.42-3.84,29.19-.97,15.27-1.17,30.6-1.53,45.9-.33,14.01-2.47,27.67-7.05,40.94-1.47,4.26-3.19,8.46-4.2,12.83-.8,3.49-.68,7.19-.97,10.8.75.34,1.5.68,2.24,1.02,2.78-2.9,5.55-5.81,8.33-8.71Z"/>
      <path class="cls-1" d="M229.99,250.97c-3.23-.57-6.48-1.09-9.7-1.72-4.32-.85-8.62-1.8-13.79-2.89,4.92-45.03,27.4-77.83,63.86-102.79-2.57-4.61-4.89-8.91-7.33-13.13-4.75-8.21-9.75-16.27-14.29-24.59-4.79-8.79-1.05-17.22,8.25-19.4,5.31-1.24,10.14,1.16,13.85,7.32,6.51,10.84,12.83,21.79,19.25,32.68,1.01,1.72,2.12,3.39,3.36,5.35,34.27-12.37,68.43-12.48,103.14.32,6.62-11.23,13.12-22.28,19.65-33.3,1.61-2.71,3.12-5.53,5.08-7.98,3.92-4.89,9.73-6.06,15.19-3.4,5.41,2.64,8.38,8.09,6.25,14.09-2.01,5.66-5.3,10.9-8.27,16.19-4.84,8.63-9.88,17.15-15.16,26.27,24.31,16.04,42.69,36.64,53.72,63.22,5,12.05,8.63,24.56,9.44,38.97-3.93.9-7.5,1.74-11.09,2.52-3.64.8-7.29,1.53-10.94,2.3h-8.05c-.03-.22-.06-.44-.09-.65,1.39-.47,2.78-.94,3.74-1.27h-223.45c-.03.08-.05.17-.08.25,1.85.24,3.71.49,5.56.73-.02.31-.04.61-.06.92h-8.05ZM425.15,201.63c-.42-11.33-7.37-15.48-17.52-16.78-6.5-.83-11.11,4.27-11.03,10.77.11,8.81,9.8,19.09,17.96,19.04,6.57-.04,10.55-4.93,10.59-13.02ZM268.79,190.26c-.65.03-1.29.06-1.94.09-.5,5-1.55,10.03-1.37,15.01.21,5.46,4.93,9.69,9.81,9.15,6.67-.74,11.8-4.44,14.77-10.44,2.88-5.82,4.41-11.88-.79-17.59-2.85-.62-5.67-1.24-8.57-1.88-4.01,1.91-7.96,3.79-11.92,5.67Z"/>
      <path class="cls-3" d="M225.77,454.74c1.64-1.16,3.28-2.32,4.1-2.9,1.19-5.81.88-11.84,3.63-15.62,2.83-3.88,8.67-5.57,11.95-7.49,8.5,1.33,15.47,1.4,21.65,3.64,9.28,3.37,17.89,8.53,27,12.43,9.9,4.23,19.92,8.26,30.11,11.7,16.79,5.68,33.84,4.34,50.11-1.51,15.4-5.54,30.14-12.9,45.2-19.4,10.54-4.55,21.29-6.85,32.53-2.44,3.32,1.3,6.68,2.51,10.46,3.93,1.41,4.91-.61,9.41-2.74,13.77-2,4.09-2.97,8.03-.39,12.18-1.56,2.22-3.12,4.43-4.68,6.65-.31.39-.63.78-.94,1.17-3.87,4.24-7.88,8.37-11.56,12.78-2.37,2.84-4.25,6.08-6.35,9.14-1.19.88-2.72,1.52-3.53,2.66-8.48,12.07-17.63,22.82-34.46,21.97-5.59-.28-10.2,2.32-11.87,8.11-2.87,9.9-5.75,19.81-8.05,29.85-1.59,6.9-2.21,14.03-3.11,20.06,2.65,3.13,4.39,5.19,6.44,7.61,13.54-.65,26.78-1.39,40.02-1.84,3.96-.13,7.94.56,11.91.87-7.12,1.74-14.15,4.32-21.37,5.04-15.02,1.49-30.16,1.85-44.97-1.92-10.22-2.6-12-5.85-11.58-16.52.63-16,.89-32.02,1.24-48.03.04-1.77-.36-3.56-.66-6.28h-20.74v55.98c-.63,3.17-1.26,6.34-1.9,9.52-3.91,2-7.61,5.05-11.75,5.82-19.26,3.6-38.6,3.07-57.82-.69-1.91-.37-3.64-1.65-5.45-2.51,2.62-.47,5.25-1.4,7.86-1.34,12.14.27,24.28.97,36.42,1.17,3.93.06,7.87-.93,12.45-1.53.64-3.66,2.09-6.85,1.54-9.63-2.89-14.5-6.01-28.98-9.63-43.31-2.04-8.08-5.8-10.44-14.26-10.53-13.83-.15-23.95-6.32-30.68-18.35-.76-1.36-2.34-2.26-3.57-3.4-1.23,2.09-2.08,3.52-2.93,4.95.19-8-4.03-13.47-9.26-19.2-7.5-8.21-13.65-17.66-20.37-26.57Z"/>
      <path class="cls-1" d="M123.87,424.95c-6.15-6.13-6.91-13.85-4.52-21.36,5.65-17.81,11.76-35.49,18.31-52.99,7.27-19.42,15.2-38.6,22.93-57.85,1.26-3.13,3.01-6.05,4.43-9.12,5.55-12.03,21.28-14.3,33.69-5.57-7.47,3.28-10.42,9.76-12.27,17.11-2.9,11.53-5.84,23.04-8.89,34.53-5.16,19.44-10.37,38.86-15.67,58.26-2.15,7.87-4.61,15.85-11.76,20.67-6.07,4.1-12.81,7.21-19.13,10.96-2.54,1.51-4.76,3.55-7.13,5.35Z"/>
      <path class="cls-1" d="M489.37,279.7c5.81-8.25,14.51-7.49,22.71-6.46,7.25.91,11.17,6.46,12.79,13.31,5.29,22.34,10.65,44.66,15.57,67.08,3.37,15.35,6.3,30.82,8.9,46.32,1.04,6.18,1.11,12.63.73,18.9-.19,3.05-2.43,5.98-3.74,8.96-4.93-2.36-9.92-4.62-14.79-7.1-8.38-4.28-16.39-9.22-17.77-19.6-1.73-13.1-2.93-26.27-4.22-39.42-.68-6.92-.71-13.92-1.65-20.8-2.58-18.84-5.48-37.64-8.33-57.02-1.21-1.36-2.69-3.03-3.7-4.17h-6.49Z"/>
      <path class="cls-3" d="M489.37,279.7c1.8,0,3.59,0,6.49,0,1.02,1.15,2.5,2.81,3.7,4.17,2.86,19.38,5.76,38.18,8.33,57.02.94,6.88.97,13.88,1.65,20.8,1.29,13.15,2.49,26.32,4.22,39.42,1.37,10.38,9.39,15.32,17.77,19.6,4.87,2.49,9.86,4.74,14.79,7.1-6.37,9.28-15.58,12.84-26.3,11.75-10.48-1.07-18.69-6.6-21.2-17.18-3.01-12.69-5.16-25.64-6.76-38.6-2.51-20.35-4.24-40.8-6.98-61.2,0,14.15.73,28.35-.19,42.44-1.1,16.84-3.62,33.58-5.52,50.36-2.78,2.9-5.55,5.81-8.33,8.71-.75-.34-1.5-.68-2.24-1.02.29-3.61.17-7.31.97-10.8,1-4.37,2.73-8.57,4.2-12.83,4.58-13.26,6.72-26.93,7.05-40.94.36-15.31.56-30.63,1.53-45.9.62-9.77,2.52-19.46,3.84-29.19.99-1.24,1.99-2.48,2.98-3.73Z"/>
      <path class="cls-1" d="M255.4,500.52c.85-1.43,1.69-2.86,2.93-4.95,1.22,1.14,2.81,2.04,3.57,3.4,6.74,12.03,16.85,18.2,30.68,18.35,8.46.09,12.22,2.45,14.26,10.53,3.62,14.34,6.74,28.81,9.63,43.31.55,2.78-.9,5.96-1.54,9.63-4.58.6-8.53,1.59-12.45,1.53-12.14-.2-24.28-.9-36.42-1.17-2.61-.06-5.24.87-7.86,1.34-4.86-1.46-4.82-5.97-4.79-9.43.17-17.36.85-34.71,1.35-52.07l.06-6.05c.19-4.8.38-9.6.58-14.41Z"/>
      <path class="cls-1" d="M433.2,582.06c-3.97-.31-7.96-1.01-11.91-.87-13.24.45-26.48,1.19-40.02,1.84-2.05-2.42-3.79-4.48-6.44-7.61.9-6.04,1.53-13.16,3.11-20.06,2.31-10.04,5.19-19.95,8.05-29.85,1.68-5.79,6.28-8.39,11.87-8.11,16.84.85,25.98-9.9,34.46-21.97.81-1.15,2.34-1.79,3.53-2.66.47,26.45,1.09,52.89,1.23,79.34.02,3.31-2.53,6.64-3.89,9.96Z"/>
      <path class="cls-3" d="M123.87,424.95c2.37-1.8,4.59-3.85,7.13-5.35,6.32-3.75,13.05-6.86,19.13-10.96,7.15-4.82,9.61-12.81,11.76-20.67,5.3-19.4,10.51-38.83,15.67-58.26,3.05-11.49,5.99-23,8.89-34.53,1.85-7.35,4.79-13.83,12.27-17.11,2.21,1.42,4.42,2.83,6.62,4.25,1.3,26.44,2.6,52.88,3.96,80.51-1.84-1.55-2.76-2.32-3.67-3.09v-47.46c-.39-.06-.78-.11-1.17-.17-2.38,9.1-4.27,18.35-7.22,27.26-8.74,26.37-17.75,52.66-27,78.86-2.79,7.89-7.75,14.24-16.63,16.36-11.91,2.84-21.69-.62-29.72-9.63Z"/>
      <path class="cls-3" d="M229.99,250.97h8.05c.02-.31.04-.61.06-.92-1.85-.24-3.71-.49-5.56-.73.03-.08.05-.17.08-.25h223.45c-.96.32-2.35.8-3.74,1.27.03.22.06.44.09.65h8.05c5.89.62,11.79,1.25,17.68,1.87-3.67,1.15-7.29,3.09-11.01,3.3-15.55.88-31.13,1.53-46.7,1.73-42.7.56-85.41,1.24-128.12,1.09-23.67-.08-47.34-1.66-71-2.78-3.5-.17-6.94-1.54-10.4-2.36,6.36-.95,12.71-1.91,19.07-2.86Z"/>
      <path class="cls-1" d="M333.22,579.85l1.9-9.52-1.9,9.52Z"/>
      <path class="cls-3" d="M254.82,514.93c-.02,2.02-.04,4.03-.06,6.05.02-2.02.04-4.03.06-6.05Z"/>
      <path class="cls-1" d="M453.77,470.84c.31-.39.63-.78.94-1.17-.31.39-.63.78-.94,1.17Z"/>
      <path class="cls-3" d="M425.15,201.63c-.04,8.08-4.02,12.98-10.59,13.02-8.16.05-17.85-10.23-17.96-19.04-.08-6.49,4.53-11.6,11.03-10.77,10.15,1.3,17.1,5.45,17.52,16.78Z"/>
      <path class="cls-3" d="M268.79,190.26c3.95-1.88,7.9-3.76,11.92-5.67,2.9.64,5.72,1.26,8.57,1.88,5.2,5.71,3.67,11.77.79,17.59-2.97,6.01-8.1,9.7-14.77,10.44-4.88.54-9.61-3.69-9.81-9.15-.19-4.98.86-10,1.37-15.01.65-.03,1.29-.06,1.94-.09Z"/>
    </g>
  </g>
</svg>