<?xml version="1.0" encoding="UTF-8"?>
<svg xmlns="http://www.w3.org/2000/svg" viewBox="0 0 66 59.66">
  <defs>
    <style>
      .cls-1 {
        fill: #5698d2;
      }

      .cls-1, .cls-2, .cls-3 {
        stroke-width: 0px;
      }

      .cls-2 {
        fill: #205378;
      }

      .cls-3 {
        fill: #2163af;
      }
    </style>
  </defs>
  <g id="wing">
    <path class="cls-2" d="M44.79,18.82c-.42-2.8.51-5.7,2.17-8s3.99-4.03,6.49-5.36c1.86-.99,3.87-1.78,5.98-1.94,1.88-.14,3.77.23,5.61.63.24.05.49.11.66.28.23.23.25.59.26.92.11,5.56-.03,11.29-2.19,16.41-.59,1.4-1.35,2.77-2.44,3.83-2.68,2.59-6.77,2.88-10.5,3.02,3.4.13,7.04.34,9.73,2.42,3.29,2.55,4.16,7.12,4.33,11.29.14,3.42-.08,7.03-1.92,9.91-.14.22-.3.44-.53.56-.27.13-.58.1-.88.06-2.98-.38-5.98-.76-8.85-1.62s-5.65-2.25-7.77-4.38c-.78-.79-1.48-1.7-1.85-2.75-.6-1.71-.26-3.59.05-5.38,1.15-6.69,1.8-13.46,1.95-20.25l-.31.37Z"/>
    <path class="cls-2" d="M21.21,18.83c.42-2.8-.51-5.7-2.17-8s-3.99-4.03-6.49-5.36c-1.86-.99-3.87-1.78-5.98-1.94-1.88-.14-3.77.23-5.61.63-.24.05-.49.11-.66.28-.23.23-.25.59-.26.92-.11,5.56.03,11.29,2.19,16.41.59,1.4,1.35,2.77,2.44,3.83,2.68,2.59,6.77,2.88,10.5,3.02-3.4.13-7.04.34-9.73,2.42-3.29,2.55-4.16,7.12-4.33,11.29-.14,3.42.08,7.03,1.92,9.91.14.22.3.44.53.56.27.13.58.1.88.06,2.98-.38,5.98-.76,8.85-1.62s5.65-2.25,7.77-4.38c.78-.79,1.48-1.7,1.85-2.75.6-1.71.26-3.59-.05-5.38-1.15-6.69-1.8-13.46-1.95-20.25l.31.37Z"/>
  </g>
  <g id="bot">
    <g>
      <path class="cls-1" d="M48.98,39.13c-.38,2.06-1.04,4-2.37,5.66-.31-.49-.19-.96.05-1.45.25-.52.49-1.05.33-1.64-.45-.17-.85-.31-1.24-.47-1.34-.52-2.61-.25-3.87.29-1.79.77-3.54,1.65-5.37,2.31-1.93.7-3.96.85-5.95.18-1.21-.41-2.4-.89-3.58-1.39-1.08-.46-2.11-1.08-3.21-1.48-.73-.27-1.56-.27-2.57-.43-.39.23-1.08.43-1.42.89-.33.45-.29,1.17-.43,1.86-.1.07-.29.21-.49.34-.9-1.26-1.3-2.73-1.68-4.2-.59-2.33-.78-4.7-.72-7.09.11.09.22.18.44.37-.16-3.28-.32-6.42-.47-9.57,0-.9.02-1.79.02-2.69,0-.44.16-.71.65-.69.41.1.82.26,1.24.28,2.81.13,5.62.32,8.44.33,5.07.02,10.15-.06,15.22-.13,1.85-.02,3.7-.1,5.55-.21.44-.02.87-.26,1.31-.39.24.08.49.16.82.27.05,1.14.11,2.25.16,3.36-.16,1.16-.38,2.31-.46,3.47-.12,1.81-.14,3.64-.18,5.45-.04,1.66-.29,3.29-.84,4.86-.17.51-.38,1.01-.5,1.52-.1.41-.08.85-.12,1.28.09.04.18.08.27.12.33-.34.66-.69.99-1.03Z"/>
      <path class="cls-1" d="M19.34,19.6c-.38-.07-.77-.13-1.15-.2-.51-.1-1.02-.21-1.64-.34.58-5.35,3.26-9.25,7.59-12.21-.31-.55-.58-1.06-.87-1.56-.56-.98-1.16-1.93-1.7-2.92-.57-1.04-.12-2.05.98-2.31.63-.15,1.21.14,1.65.87.77,1.29,1.52,2.59,2.29,3.88.12.2.25.4.4.64,4.07-1.47,8.13-1.48,12.26.04.79-1.33,1.56-2.65,2.33-3.96.19-.32.37-.66.6-.95.47-.58,1.16-.72,1.8-.4.64.31,1,.96.74,1.67-.24.67-.63,1.3-.98,1.92-.58,1.03-1.17,2.04-1.8,3.12,2.89,1.91,5.07,4.35,6.38,7.51.59,1.43,1.03,2.92,1.12,4.63-.47.11-.89.21-1.32.3-.43.09-.87.18-1.3.27h-.96s0-.05-.01-.08c.17-.06.33-.11.44-.15h-26.55s0,.02,0,.03c.22.03.44.06.66.09,0,.04,0,.07,0,.11h-.96ZM42.54,13.73c-.05-1.35-.88-1.84-2.08-1.99-.77-.1-1.32.51-1.31,1.28.01,1.05,1.16,2.27,2.13,2.26.78,0,1.25-.59,1.26-1.55ZM23.95,12.38c-.08,0-.15,0-.23.01-.06.59-.18,1.19-.16,1.78.02.65.59,1.15,1.17,1.09.79-.09,1.4-.53,1.76-1.24.34-.69.52-1.41-.09-2.09-.34-.07-.67-.15-1.02-.22-.48.23-.95.45-1.42.67Z"/>
      <path class="cls-3" d="M18.84,43.81c.2-.14.39-.28.49-.34.14-.69.1-1.41.43-1.86.34-.46,1.03-.66,1.42-.89,1.01.16,1.84.17,2.57.43,1.1.4,2.13,1.01,3.21,1.48,1.18.5,2.37.98,3.58,1.39,2,.67,4.02.52,5.95-.18,1.83-.66,3.58-1.53,5.37-2.31,1.25-.54,2.53-.81,3.87-.29.39.15.79.3,1.24.47.17.58-.07,1.12-.33,1.64-.24.49-.35.95-.05,1.45-.19.26-.37.53-.56.79-.04.05-.07.09-.11.14-.46.5-.94.99-1.37,1.52-.28.34-.51.72-.75,1.09-.14.1-.32.18-.42.32-1.01,1.43-2.09,2.71-4.1,2.61-.66-.03-1.21.28-1.41.96-.34,1.18-.68,2.35-.96,3.55-.19.82-.26,1.67-.37,2.38.31.37.52.62.77.9,1.61-.08,3.18-.17,4.76-.22.47-.02.94.07,1.42.1-.85.21-1.68.51-2.54.6-1.78.18-3.58.22-5.34-.23-1.21-.31-1.43-.69-1.38-1.96.07-1.9.11-3.8.15-5.71,0-.21-.04-.42-.08-.75h-2.46v6.65c-.08.38-.15.75-.23,1.13-.46.24-.9.6-1.4.69-2.29.43-4.59.36-6.87-.08-.23-.04-.43-.2-.65-.3.31-.06.62-.17.93-.16,1.44.03,2.89.12,4.33.14.47,0,.94-.11,1.48-.18.08-.44.25-.81.18-1.14-.34-1.72-.71-3.44-1.14-5.15-.24-.96-.69-1.24-1.69-1.25-1.64-.02-2.85-.75-3.65-2.18-.09-.16-.28-.27-.42-.4-.15.25-.25.42-.35.59.02-.95-.48-1.6-1.1-2.28-.89-.98-1.62-2.1-2.42-3.16Z"/>
      <path class="cls-1" d="M6.73,40.27c-.73-.73-.82-1.65-.54-2.54.67-2.12,1.4-4.22,2.18-6.3.86-2.31,1.81-4.59,2.72-6.87.15-.37.36-.72.53-1.08.66-1.43,2.53-1.7,4-.66-.89.39-1.24,1.16-1.46,2.03-.34,1.37-.69,2.74-1.06,4.1-.61,2.31-1.23,4.62-1.86,6.92-.26.93-.55,1.88-1.4,2.46-.72.49-1.52.86-2.27,1.3-.3.18-.57.42-.85.64Z"/>
      <path class="cls-1" d="M50.17,23.01c.69-.98,1.72-.89,2.7-.77.86.11,1.33.77,1.52,1.58.63,2.65,1.27,5.31,1.85,7.97.4,1.82.75,3.66,1.06,5.5.12.73.13,1.5.09,2.25-.02.36-.29.71-.44,1.07-.59-.28-1.18-.55-1.76-.84-1-.51-1.95-1.1-2.11-2.33-.21-1.56-.35-3.12-.5-4.68-.08-.82-.08-1.65-.2-2.47-.31-2.24-.65-4.47-.99-6.78-.14-.16-.32-.36-.44-.5h-.77Z"/>
      <path class="cls-3" d="M50.17,23.01c.21,0,.43,0,.77,0,.12.14.3.33.44.5.34,2.3.68,4.54.99,6.78.11.82.12,1.65.2,2.47.15,1.56.3,3.13.5,4.68.16,1.23,1.12,1.82,2.11,2.33.58.3,1.17.56,1.76.84-.76,1.1-1.85,1.53-3.12,1.4-1.25-.13-2.22-.78-2.52-2.04-.36-1.51-.61-3.05-.8-4.59-.3-2.42-.5-4.85-.83-7.27,0,1.68.09,3.37-.02,5.04-.13,2-.43,3.99-.66,5.98-.33.34-.66.69-.99,1.03-.09-.04-.18-.08-.27-.12.03-.43.02-.87.12-1.28.12-.52.32-1.02.5-1.52.54-1.58.8-3.2.84-4.86.04-1.82.07-3.64.18-5.45.07-1.16.3-2.31.46-3.47.12-.15.24-.3.35-.44Z"/>
      <path class="cls-1" d="M22.36,49.25c.1-.17.2-.34.35-.59.15.13.33.24.42.4.8,1.43,2,2.16,3.65,2.18,1.01.01,1.45.29,1.69,1.25.43,1.7.8,3.42,1.14,5.15.07.33-.11.71-.18,1.14-.54.07-1.01.19-1.48.18-1.44-.02-2.89-.11-4.33-.14-.31,0-.62.1-.93.16-.58-.17-.57-.71-.57-1.12.02-2.06.1-4.12.16-6.19v-.72c.03-.57.05-1.14.08-1.71Z"/>
      <path class="cls-1" d="M43.49,58.94c-.47-.04-.95-.12-1.42-.1-1.57.05-3.15.14-4.76.22-.24-.29-.45-.53-.77-.9.11-.72.18-1.56.37-2.38.27-1.19.62-2.37.96-3.55.2-.69.75-1,1.41-.96,2,.1,3.09-1.18,4.1-2.61.1-.14.28-.21.42-.32.06,3.14.13,6.29.15,9.43,0,.39-.3.79-.46,1.18Z"/>
      <path class="cls-3" d="M6.73,40.27c.28-.21.55-.46.85-.64.75-.45,1.55-.82,2.27-1.3.85-.57,1.14-1.52,1.4-2.46.63-2.31,1.25-4.61,1.86-6.92.36-1.36.71-2.73,1.06-4.1.22-.87.57-1.64,1.46-2.03.26.17.52.34.79.51.15,3.14.31,6.28.47,9.57-.22-.18-.33-.28-.44-.37v-5.64s-.09-.01-.14-.02c-.28,1.08-.51,2.18-.86,3.24-1.04,3.13-2.11,6.26-3.21,9.37-.33.94-.92,1.69-1.98,1.94-1.41.34-2.58-.07-3.53-1.14Z"/>
      <path class="cls-3" d="M19.34,19.6h.96s0-.07,0-.11c-.22-.03-.44-.06-.66-.09,0,0,0-.02,0-.03h26.55c-.11.04-.28.09-.44.15,0,.03,0,.05.01.08h.96c.7.07,1.4.15,2.1.22-.44.14-.87.37-1.31.39-1.85.1-3.7.18-5.55.21-5.07.07-10.15.15-15.22.13-2.81-.01-5.62-.2-8.44-.33-.42-.02-.82-.18-1.24-.28.76-.11,1.51-.23,2.27-.34Z"/>
      <path class="cls-1" d="M31.61,58.68l.23-1.13-.23,1.13Z"/>
      <path class="cls-3" d="M22.3,50.96c0,.24,0,.48,0,.72,0-.24,0-.48,0-.72Z"/>
      <path class="cls-1" d="M45.94,45.72s.07-.09.11-.14c-.04.05-.07.09-.11.14Z"/>
      <path class="cls-3" d="M42.54,13.73c0,.96-.48,1.54-1.26,1.55-.97,0-2.12-1.22-2.13-2.26,0-.77.54-1.38,1.31-1.28,1.21.15,2.03.65,2.08,1.99Z"/>
      <path class="cls-3" d="M23.95,12.38c.47-.22.94-.45,1.42-.67.34.08.68.15,1.02.22.62.68.44,1.4.09,2.09-.35.71-.96,1.15-1.76,1.24-.58.06-1.14-.44-1.17-1.09-.02-.59.1-1.19.16-1.78.08,0,.15,0,.23-.01Z"/>
    </g>
  </g>
</svg>